<?xml version="1.0" encoding="UTF-8" standalone="no"?>
<!-- Created with Inkscape (http://www.inkscape.org/) -->

<svg
   xmlns:dc="http://purl.org/dc/elements/1.1/"
   xmlns:cc="http://creativecommons.org/ns#"
   xmlns:rdf="http://www.w3.org/1999/02/22-rdf-syntax-ns#"
   xmlns:svg="http://www.w3.org/2000/svg"
   xmlns="http://www.w3.org/2000/svg"
   xmlns:sodipodi="http://sodipodi.sourceforge.net/DTD/sodipodi-0.dtd"
   xmlns:inkscape="http://www.inkscape.org/namespaces/inkscape"
   width="140mm"
   height="140mm"
   viewBox="0 0 496.06301 496.06307"
   id="svg6117"
   version="1.1"
   inkscape:version="0.91 r13725"
   sodipodi:docname="romannumeralclock-1922.svg">
  <defs
     id="defs6119" />
  <sodipodi:namedview
     id="base"
     pagecolor="#ffffff"
     bordercolor="#666666"
     borderopacity="1.0"
     inkscape:pageopacity="0.0"
     inkscape:pageshadow="2"
     inkscape:zoom="0.87"
     inkscape:cx="192.53931"
     inkscape:cy="300.454"
     inkscape:document-units="px"
     inkscape:current-layer="g8704"
     showgrid="false"
     fit-margin-top="0"
     fit-margin-left="0"
     fit-margin-right="0"
     fit-margin-bottom="0"
     inkscape:window-width="1916"
     inkscape:window-height="1035"
     inkscape:window-x="4"
     inkscape:window-y="1"
     inkscape:window-maximized="1" />
  <metadata
     id="metadata6122">
    <rdf:RDF>
      <cc:Work
         rdf:about="">
        <dc:format>image/svg+xml</dc:format>
        <dc:type
           rdf:resource="http://purl.org/dc/dcmitype/StillImage" />
        <dc:title></dc:title>
        <cc:license
           rdf:resource="http://creativecommons.org/publicdomain/zero/1.0/" />
        <dc:creator>
          <cc:Agent>
            <dc:title>j4p4n</dc:title>
          </cc:Agent>
        </dc:creator>
      </cc:Work>
      <cc:License
         rdf:about="http://creativecommons.org/publicdomain/zero/1.0/">
        <cc:permits
           rdf:resource="http://creativecommons.org/ns#Reproduction" />
        <cc:permits
           rdf:resource="http://creativecommons.org/ns#Distribution" />
        <cc:permits
           rdf:resource="http://creativecommons.org/ns#DerivativeWorks" />
      </cc:License>
    </rdf:RDF>
  </metadata>
  <g
     inkscape:label="Layer 1"
     inkscape:groupmode="layer"
     id="layer1"
     transform="translate(-373.63002,-1190.301)">
    <g
       id="g8704"
       transform="translate(-380.4087,383.33489)">
      <path
         style="fill:#000000"
         d="m 978.37174,1255.4729 c -27.83866,-3.7955 -57.79289,-14.6092 -81.76503,-29.5179 -18.77399,-11.6758 -42.56694,-33.2337 -54.57541,-49.4488 -3.25853,-4.4 -6.2621,-8.15 -6.6746,-8.3333 -0.4125,-0.1834 -0.75,-0.6999 -0.75,-1.1478 0,-0.448 -1.75038,-3.6957 -3.88973,-7.2171 -9.82174,-16.1669 -18.08939,-35.3305 -22.9958,-53.3018 -5.53231,-20.264 -6.57981,-28.8124 -6.55566,-53.5 0.0191,-19.5454 0.32787,-24.0102 2.35129,-34 5.13733,-25.36372 9.83931,-38.96862 20.59422,-59.58802 15.88205,-30.44924 36.95313,-53.83255 65.92268,-73.1567 36.73602,-24.5048 72.67998,-35.69738 114.573,-35.67689 21.1872,0.0104 35.5079,1.94355 54.7195,7.38674 14.2812,4.04625 17.4429,5.2519 33.1321,12.63442 5.1433,2.4202 9.7558,4.40037 10.25,4.40037 0.4941,0 0.8984,0.45 0.8984,1 0,0.55 0.4432,1 0.985,1 0.993,0 11.0861,5.88251 12.015,7.00263 0.275,0.33162 2.3,1.67112 4.5,2.97667 5.7448,3.40917 19.7836,15.26468 28.4289,24.00775 17.2415,17.43652 31.7667,38.93827 41.5541,61.51291 0.7154,1.65 1.979,4.575 2.808,6.5 5.2501,12.1907 10.8036,34.79562 12.7753,52.00012 1.6188,14.1259 0.6349,43.0943 -1.953,57.5 -11.7111,65.191 -53.1362,120.1286 -112.1133,148.6838 -33.5007,16.2201 -77.5987,23.2778 -114.23496,18.2829 z m 46.33696,-2.9317 c 15.3702,-1.6314 23.9683,-3.3648 38.398,-7.7412 11.672,-3.54 30.7494,-11.5451 37.6869,-15.8137 2.6637,-1.6391 5.1208,-2.9801 5.4602,-2.9801 1.1126,0 20.7065,-14.2073 27.3529,-19.8333 40.5322,-34.3093 64.6309,-81.8553 70.1513,-138.4066 3.0297,-31.0362 -4.6125,-69.36762 -20.1883,-101.26022 -10.3012,-21.09217 -22.3911,-37.84424 -39.1223,-54.20861 -24.6024,-24.06293 -44.4703,-36.2596 -80.1388,-49.19632 -7.3087,-2.65082 -27.2217,-6.66236 -39.9125,-8.04052 -29.16153,-3.16678 -59.87521,0.91653 -89.78939,11.93731 -9.35914,3.44803 -28.98906,13.06782 -32.82825,16.08772 -1.34281,1.05625 -2.87841,1.92046 -3.41244,1.92046 -1.71891,0 -24.02186,17.26159 -31.64685,24.4934 -34.42949,32.65413 -56.01139,76.53506 -61.17162,124.37588 -1.67762,15.5533 -0.72966,41.3952 2.0407,55.6308 2.12969,10.9435 7.04208,28.823 9.7536,35.5 3.89725,9.5968 5.05247,12.1278 9.09576,19.9285 21.17888,40.8601 56.20668,73.7082 97.5677,91.4964 33.89276,14.5762 66.30333,19.7611 100.70339,16.1101 z m -29.60198,-1.0314 c -1.1,-0.2007 -6.95,-0.8831 -13,-1.5165 -31.51534,-3.2991 -66.66281,-16.5867 -91.1489,-34.4588 -2.28189,-1.6656 -5.39124,-3.9283 -6.90968,-5.0283 -1.51843,-1.1 -4.37643,-3.4554 -6.35111,-5.2343 -1.97467,-1.7789 -6.29032,-5.5912 -9.59032,-8.4719 -3.3,-2.8806 -8.73475,-8.4002 -12.07722,-12.2657 -6.15527,-7.1183 -17.42279,-21.9691 -17.42279,-22.9634 0,-0.298 -0.76036,-1.4299 -1.6897,-2.5152 -2.79625,-3.2658 -13.31649,-23.9947 -16.51933,-32.5495 -9.91257,-26.4763 -12.74315,-40.5658 -13.525,-67.3219 -0.35242,-12.0603 -0.10728,-21.4585 0.7173,-27.5 7.34241,-53.79612 32.06363,-98.49798 72.52009,-131.13365 29.03043,-23.41845 64.40508,-38.34659 103.2875,-43.58744 14.32325,-1.93059 42.48524,-0.70994 58.20914,2.52302 29.7384,6.11446 54.9982,17.41864 80.5,36.02517 10.5577,7.70311 27.5064,23.60936 34.0819,31.98584 2.155,2.74511 4.9306,6.11551 6.1681,7.48978 1.2375,1.37427 2.25,2.80863 2.25,3.18746 0,0.37884 0.5633,1.28344 1.2517,2.01022 1.62,1.71016 6.2147,8.78573 9.1728,14.12578 15.9699,28.829 23.6089,53.26702 26.6309,85.19572 2.92,30.8517 -4.4054,68.7368 -19.1425,99 -6.6309,13.6167 -9.3435,18.383 -15.254,26.8022 -2.2874,3.2583 -4.8543,6.9678 -5.7043,8.2433 -5.7873,8.6849 -22.6019,25.6398 -35.4546,35.7505 -3.3,2.596 -6.5212,5.1456 -7.1583,5.6657 -1.4504,1.1844 -12.1552,8.124 -14.8417,9.6215 -24.9394,13.9021 -47.3908,21.5963 -72.8666,24.972 -11.1975,1.4837 -32.41085,2.6276 -36.13338,1.9484 z m 44.99998,-4.9247 c 12.8486,-2.6796 32.5908,-8.4395 40.2893,-11.7547 2.5909,-1.1157 7.0453,-3.1075 9.8988,-4.4263 2.8534,-1.3188 5.4252,-2.3979 5.7151,-2.3979 1.2123,0 18.815,-11.8841 28.0157,-18.9143 10.3913,-7.9399 24.4161,-21.3955 32.9218,-31.5857 16.0633,-19.2444 30.371,-48.2241 37.5225,-76 4.883,-18.9654 5.5299,-24.2946 5.5842,-46 0.053,-21.1475 -0.444,-25.9817 -4.5747,-44.5 -5.6264,-25.22382 -19.3985,-55.48902 -33.2875,-73.15192 -1.1469,-1.45852 -3.2102,-4.15852 -4.5852,-6 -8.0896,-10.834 -30.2474,-31.25076 -44.057,-40.59511 -4.1802,-2.82857 -21.876,-13.25305 -22.4974,-13.25305 -0.147,0 -3.5941,-1.55791 -7.66,-3.46202 -19.1217,-8.95473 -42.4761,-14.72659 -67.3201,-16.63763 -14.0937,-1.0841 -17.68963,-1.02638 -29.70962,0.47692 -15.63947,1.95597 -22.56889,3.35137 -35.25377,7.09918 -22.86006,6.75411 -44.29771,17.15786 -61.5021,29.84713 -14.62387,10.78598 -30.73151,26.48855 -40.69998,39.67643 -3.11801,4.125 -6.86407,9.075 -8.3246,11 -1.46052,1.925 -4.41498,6.875 -6.56546,10.99995 -2.15048,4.125 -4.16595,7.725 -4.47882,8 -0.31287,0.275 -1.27833,2.3 -2.14547,4.5 -0.86713,2.2 -2.69533,6.475 -4.06266,9.5 -4.14607,9.1726 -11.35977,34.22762 -12.81221,44.50012 -1.93187,13.6633 -2.95104,31.1308 -2.36303,40.5 1.48024,23.5859 8.43679,52.301 17.00718,70.2018 6.59188,13.7683 14.88218,28.4335 17.41046,30.7982 0.29402,0.275 2.07577,2.75 3.95945,5.5 1.88368,2.75 5.48368,7.269 8,10.0422 2.51633,2.7732 5.52404,6.1482 6.68381,7.5 2.47675,2.8868 9.30634,9.1513 18.39133,16.8696 3.575,3.0372 6.725,5.762 7,6.0552 0.51596,0.55 12.43064,8.4126 17.1862,11.3413 14.84006,9.1391 32.56403,15.9942 58.48175,22.6191 16.91712,4.3242 23.95896,5.0166 46.33204,4.5557 15.8305,-0.3261 21.7581,-0.8726 31.5,-2.9042 z m -60.24998,-6.2604 c -2.33162,-0.905 -1.26471,-2.3185 1.75,-2.3185 2.57842,0 3.01602,-0.3864 3.11402,-2.75 0.0627,-1.5125 0.30324,-4.1 0.53451,-5.75 0.23126,-1.65 0.13257,-9.8625 -0.21931,-18.25 -0.6395,-15.2431 -0.64087,-15.25 -3.0345,-15.25 -1.46197,0 -2.39472,-0.5842 -2.39472,-1.5 0,-1.2274 1.71566,-1.5 9.44098,-1.5 5.19254,0 9.68759,0.399 9.98899,0.8867 0.81201,1.3139 -1.94161,3.2379 -3.67951,2.5711 -1.26618,-0.4859 -1.6174,1.406 -2.22878,12.0059 -0.73702,12.7782 0.11043,29.4023 1.42097,27.8744 0.39539,-0.4609 1.52721,-3.7631 2.51516,-7.3381 0.98795,-3.575 2.67647,-9.65 3.75227,-13.5 1.0758,-3.85 2.7085,-10.1133 3.6282,-13.9184 1.575,-6.5166 3.6356,-9.3997 4.5844,-6.4147 0.2331,0.7332 1.4084,4.7081 2.6117,8.8331 4.2399,14.5347 10.4271,32.5085 11.4404,33.2347 0.5639,0.4041 2.0377,0.7416 3.2752,0.75 1.3252,0.01 2.25,0.631 2.25,1.5134 0,1.2914 -3.2764,1.4848 -23.75,1.4018 -13.06248,-0.053 -24.31248,-0.3145 -24.99998,-0.5814 z m 32.57578,-2.6913 c 0.5847,-1.1853 -2.2394,-11.8244 -6.5372,-24.6272 -0.3139,-0.935 -1.0447,0.01 -1.9402,2.5 -2.4355,6.7807 -5.60889,20.3788 -5.07845,21.7611 0.52398,1.3654 12.89805,1.6996 13.55585,0.3661 z m -76.82579,-7.6686 c -8.54402,-5.2619 -33.9616,-20.347 -39.25,-23.2944 -3.7125,-2.0691 -6.75,-4.415 -6.75,-5.2131 0,-1.6583 1.57794,-1.943 2.5,-0.4511 1.16051,1.8778 3.99766,0.9913 5.62135,-1.7563 0.89174,-1.509 5.55348,-9.2232 10.35943,-17.1427 7.44217,-12.2635 8.49939,-14.5326 7.12865,-15.2997 -1.41558,-0.7922 -2.33905,-3.8013 -1.16659,-3.8013 0.24356,0 2.0727,0.9617 4.06475,2.137 3.46871,2.0466 3.59355,2.311 2.95125,6.25 -0.39278,2.4088 -3.63077,9.0853 -7.81475,16.1133 -10.951,18.395 -11.42178,19.3971 -9.64187,20.5222 2.28852,1.4468 2.32739,1.4131 6.38457,-5.5225 4.04413,-6.9133 5.06779,-7.6937 5.90296,-4.5 0.31292,1.1966 1.36401,2 2.61663,2 2.64013,0 2.6239,0.1997 -0.40638,5 -1.375,2.1782 -2.5,4.3551 -2.5,4.8376 0,0.4825 6.73825,-5.8953 14.9739,-14.1729 8.23564,-8.2776 15.2643,-14.7598 15.61923,-14.4049 0.35492,0.3549 -0.12976,3.9292 -1.07707,7.9428 -4.74458,20.102 -8.31341,37.3163 -7.88129,38.0155 0.2658,0.4301 1.13171,0.7819 1.92425,0.7819 0.79254,0 1.44098,0.675 1.44098,1.5 0,1.6548 -2.66133,1.8989 -5,0.4586 z m -4.06755,-18.2086 c 1.23687,-5.6375 2.46338,-11.0375 2.72559,-12 0.90722,-3.3302 -1.37729,-1.7134 -9.55257,6.7605 -7.36381,7.6328 -8.99606,10.4895 -5.9934,10.4895 0.54672,0 2.64962,1.125 4.67312,2.5 2.02349,1.375 4.17843,2.5 4.78875,2.5 0.61032,0 2.12165,-4.6125 3.35851,-10.25 z m 145.06754,13.6603 c 0,-0.3243 0.8895,-1.3368 1.9766,-2.25 1.9622,-1.648 1.9546,-1.7598 -1.0205,-15.1603 -5.5248,-24.8854 -6.2406,-28.8163 -5.5666,-30.5728 0.5389,-1.4043 3.464,1.0301 14.8906,12.3926 15.8228,15.7341 17.4233,17.1028 20.0532,17.1484 2.4165,0.042 1.7345,1.8399 -1.3596,3.5847 -1.3606,0.7671 -5.9984,3.4316 -10.3063,5.921 -4.308,2.4894 -8.0444,4.5261 -8.3031,4.5261 -0.2587,0 -2.126,1.125 -4.1495,2.5 -3.4854,2.3684 -6.2148,3.2074 -6.2148,1.9103 z m 14.8207,-9.3359 6.3153,-3.4255 -9.5295,-9.5296 c -5.2413,-5.2412 -9.7468,-9.3123 -10.0123,-9.0469 -0.4383,0.4383 3.7666,21.5986 4.9204,24.7608 0.5612,1.538 0.1062,1.6891 8.3061,-2.7588 z m -174.33828,-20.8244 c 2.38884,-6.003 6.79597,-26.1308 7.35504,-33.5911 l 0.66255,-8.8411 5.5,-2.3137 c 9.16328,-3.8547 16.65953,-12.308 31.48436,-35.5041 2.63633,-4.125 6.41834,-10.0398 8.40448,-13.1439 1.98615,-3.1042 4.34571,-6.9292 5.24349,-8.5 0.89777,-1.5709 5.10527,-8.6454 9.34999,-15.7211 l 7.71768,-12.8651 -1.80756,-4.0085 c -1.92902,-4.2777 -2.16715,-11.3867 -0.43931,-13.1145 1.55043,-1.5504 1.27807,-4.1251 -0.82935,-7.8397 -1.03193,-1.819 -3.90178,-7.1322 -6.37743,-11.8072 -29.07011,-54.89572 -36.78634,-66.28052 -46.77005,-69.00632 -2.46197,-0.6722 -5.0388,-1.3817 -5.7263,-1.5766 -0.89644,-0.2541 -1.26499,-3.40386 -1.30299,-11.13577 -0.0507,-10.30923 -1.36914,-20.25846 -4.04584,-30.52991 -1.21735,-4.67141 -0.57891,-7.60283 1.02853,-4.72252 4.08177,7.31398 17.34733,18.95771 26.9077,23.61799 6.42615,3.13249 7.25524,3.84222 6.67588,5.71487 -1.43597,4.64145 -1.68546,11.61158 -0.59939,16.74534 1.1792,5.5739 10.65565,25.8595 17.00102,36.3928 1.98794,3.3 5.36332,9.37512 7.50083,13.50012 2.13752,4.125 4.6071,8.625 5.48796,10 0.88086,1.375 3.80496,6.8373 6.498,12.1385 l 4.89639,9.6386 5.3355,0.4424 c 5.7848,0.4797 8.5285,2.2732 11.1343,7.2781 2.1443,4.1185 1.6456,11.2328 -1.0702,15.2672 -2.5287,3.7567 -8.9486,7.2352 -13.3529,7.2352 -2.3132,0 -3.31228,0.6332 -4.25165,2.6949 -0.67534,1.4823 -4.03154,6.9948 -7.45821,12.25 -3.42667,5.2553 -8.8559,14.2801 -12.06496,20.0551 -3.20906,5.775 -6.67154,11.7145 -7.6944,13.1988 -2.54677,3.6958 -11.25725,21.0803 -13.92975,27.8012 -1.44415,3.6318 -2.35999,8.6001 -2.69622,14.6267 -0.5042,9.0369 -0.53989,9.1415 -3.6294,10.6341 -4.39116,2.1215 -16.87873,12.1796 -24.91613,20.0687 -6.60421,6.4823 -10.71629,8.6765 -9.22166,4.9205 z m 89.01758,-141.7637 c 0,-1.2985 -0.7791,-2.0969 -2.25,-2.3058 -1.657,-0.2354 -2.25,0.1819 -2.25,1.5833 0,1.0466 0.3156,2.2184 0.7013,2.6041 1.3265,1.3265 3.7987,0.102 3.7987,-1.8816 z m -10.3488,-14.8041 c -0.62361,-0.7514 -0.83773,-1.6624 -0.47584,-2.0243 0.3619,-0.3618 -0.0654,-0.6579 -0.94966,-0.6579 -2.47499,0 -3.00223,1.7774 -0.7402,2.4954 1.10799,0.3516 2.01452,1.134 2.01452,1.7386 0,0.6047 0.28913,0.8102 0.6425,0.4568 0.35338,-0.3533 0.13228,-1.2573 -0.49132,-2.0086 z m -2.38012,-5.4954 c 0.24358,-0.7308 -0.21359,-0.9543 -1.1875,-0.5805 -0.87096,0.3342 -1.58356,1.047 -1.58356,1.584 0,1.3144 2.27278,0.4913 2.77106,-1.0035 z m -1.22994,-2.2534 c 0.36253,-0.5866 0.4535,-1.2722 0.20214,-1.5235 -0.69747,-0.6975 -3.74326,0.6834 -3.74326,1.697 0,1.2518 2.74331,1.1174 3.54112,-0.1735 z m -1.77029,-3.7459 c 0.59996,-1.7999 -1.467,-1.4217 -2.16452,0.396 -0.37373,0.9739 -0.15024,1.4311 0.58051,1.1875 0.6535,-0.2178 1.36631,-0.9304 1.58401,-1.5835 z m -1.31354,-2.1184 c 1.00194,-1.6212 -1.17528,-2.1139 -2.46643,-0.5581 -1.00476,1.2106 -0.94351,1.489 0.32768,1.489 0.85988,0 1.82232,-0.419 2.13875,-0.9309 z m -1.45729,-3.0691 c 1.28754,-0.8321 1.25658,-0.9716 -0.21862,-0.9847 -1.11403,-0.01 -1.51612,-0.543 -1.14301,-1.5153 0.35888,-0.9353 -0.007,-1.5 -0.97236,-1.5 -1.9452,0 -3.43056,2.2451 -1.83683,2.7763 0.6508,0.217 0.92892,0.806 0.61803,1.3091 -0.74429,1.2043 1.64602,1.1468 3.55279,-0.085 z m -3,-6.5352 c 0,-1.2253 -0.4037,-1.3192 -2,-0.4648 -1.1,0.5887 -2,1.2795 -2,1.5351 0,0.2557 0.9,0.4649 2,0.4649 1.13148,0 2,-0.6667 2,-1.5352 z m -1.54271,-2.3957 c 0.31644,-0.512 0.1586,-1.1885 -0.35074,-1.5033 -1.18225,-0.7307 -4.10655,0.3668 -4.10655,1.5411 0,1.1835 3.72198,1.1519 4.45729,-0.038 z m -2.58841,-3.4112 c 1.39726,-1.6835 0.46373,-2.7178 -1.71665,-1.9018 -1.43685,0.5377 -1.47333,0.3984 -0.27979,-1.0689 1.20722,-1.4841 1.11692,-1.6872 -0.75,-1.6872 -2.417,0 -2.66983,1.1506 -0.88189,4.0135 1.46066,2.3389 2.12424,2.4568 3.62833,0.6444 z m -4.45067,-5.2649 c 0.86999,-0.3339 1.58179,-1.2339 1.58179,-2 0,-1.7108 -1.19952,-1.7935 -2.8,-0.193 -2.182,2.182 -1.57951,3.2666 1.21821,2.193 z m -0.41821,-4.41822 c 0,-2.1228 -1.30647,-3.7945 -2.58276,-3.3047 -0.77948,0.2991 -1.41724,0.083 -1.41724,-0.4798 0,-0.563 0.5625,-1.2246 1.25,-1.4701 0.6875,-0.2456 0.95104,-0.7695 0.58565,-1.1644 -0.3654,-0.3948 -1.66369,-0.1831 -2.8851,0.4706 -1.22141,0.6537 -1.82174,1.4776 -1.33406,1.831 0.48769,0.3534 1.5053,1.8441 2.26136,3.3127 1.24009,2.40882 4.12215,2.97142 4.12215,0.8047 z m -4.45888,-8.0414 c 0.36253,-0.5866 0.4535,-1.2722 0.20214,-1.5235 -0.69747,-0.6975 -3.74326,0.6833 -3.74326,1.697 0,1.2518 2.74331,1.1174 3.54112,-0.1735 z m -2.04112,-2.9335 c 0.33992,-0.55 -0.057,-1 -0.88197,-1 -0.825,0 -1.77811,0.45 -2.11803,1 -0.33992,0.55 0.057,1 0.88197,1 0.825,0 1.77811,-0.45 2.11803,-1 z m -1.21871,-2.6146 c 0.33804,-0.338 -0.0709,-1.6609 -0.90881,-2.9396 -1.59198,-2.4297 -4.64576,-2.3215 -3.70455,0.1313 0.2979,0.7763 0.93933,1.1657 1.4254,0.8653 0.48607,-0.3004 0.61577,0.1521 0.28823,1.0057 -0.58692,1.5295 1.6005,2.2365 2.89973,0.9373 z m -3.28129,-6.3854 c 0,-0.55 -0.42344,-1 -0.94098,-1 -0.51754,0 -1.2191,0.45 -1.55902,1 -0.33992,0.55 0.0835,1 0.94098,1 0.85746,0 1.55902,-0.45 1.55902,-1 z m -1.45888,-2.0665 c 0.91669,-1.4832 0.0546,-2.0993 -1.89225,-1.3522 -0.90056,0.3456 -1.38841,1.0312 -1.08411,1.5235 0.74846,1.2111 2.17268,1.1291 2.97636,-0.1713 z m -2.57008,-2.8944 c 0.80907,-0.5117 1.21098,-1.1904 0.89313,-1.5082 -0.78775,-0.7878 -3.86417,0.4671 -3.86417,1.5761 0,1.1398 1.10118,1.1146 2.97104,-0.068 z m -1.55283,-2.646 c 0.86999,-0.3339 1.58179,-1.0089 1.58179,-1.5 0,-1.4309 -2.64144,-1.03 -4,0.6069 -1.31975,1.5903 -0.34077,1.9518 2.41821,0.8931 z m -0.41821,-4.8216 c 0,-0.8247 -1.28618,-0.6763 -2.87812,0.3321 -0.75796,0.48 -1.06677,1.3766 -0.68624,1.9923 0.48903,0.7913 1.11297,0.6984 2.12812,-0.3168 0.78993,-0.7899 1.43624,-1.6933 1.43624,-2.0076 z m -2.53748,-1.1768 c 1.02323,-1.0233 1.3667,-2.3831 0.9472,-3.75 -0.91932,-2.9956 -0.93678,-3.0006 -3.82296,-1.1095 -2.77286,1.8168 -3.57276,4.0778 -1.08676,3.0718 3.8074,-1.5407 4.75685,-1.5933 2.22033,-0.1231 -1.52882,0.8861 -2.51476,2.0397 -2.19098,2.5636 0.85381,1.3815 2.10678,1.1736 3.93317,-0.6528 z m 0.0997,-8.4953 c 0.30569,-0.4947 0.0362,-0.8994 -0.59883,-0.8994 -1.55654,0 -6.96339,3.9091 -6.96339,5.0344 0,0.9746 6.65243,-2.663 7.56221,-4.135 z m -4.42308,-0.6101 c 2.25294,-1.4909 3.6269,-2.8672 3.05326,-3.0585 -1.42525,-0.47504 -9.19239,3.5719 -9.19239,4.7896 0,1.6339 1.83688,1.116 6.13913,-1.7311 z m 0.0623,-3.95424 c 3.31809,-2.12384 3.88222,-2.83806 2.47314,-3.1311 -1.73362,-0.36053 -1.7384,-0.47584 -0.095,-2.29177 2.8321,-3.12943 -0.13354,-2.30231 -8.19941,2.28682 -7.53089,4.28469 -8.93719,5.80099 -5.38018,5.80099 1.1,0 2,0.4389 2,0.9753 0,1.3176 3.81153,-0.1903 9.20139,-3.64024 z m -4.85574,-0.92391 c 2.09544,-1.42389 4.01912,-2.37968 4.27483,-2.12397 0.47527,0.47528 -6.18725,4.71282 -7.40977,4.71282 -0.37124,0 1.03949,-1.16495 3.13494,-2.58885 z m -2.25848,-2.9111 c 4.89027,-3.025 9.34622,-5.5 9.90209,-5.5 1.26504,0 1.28128,-2.02351 0.0321,-3.99959 -0.8021,-1.26885 -2.39391,-0.77193 -10.34524,3.2295 -8.58836,4.32202 -13.43438,7.77009 -10.92032,7.77009 0.55041,0 4.54301,-1.95915 8.87244,-4.35366 4.32945,-2.39452 8.99671,-4.70042 10.37171,-5.12423 3.29167,-1.01458 2.5397,-0.37348 -3.5,2.98395 -2.75,1.52871 -7.23676,4.02548 -9.97056,5.54837 -4.84397,2.69837 -6.89547,4.94552 -4.51488,4.94552 0.64968,0 5.18238,-2.47495 10.07266,-5.49995 z m -2.41343,-6.64411 c 4.57942,-2.27926 8.32621,-4.55958 8.32621,-5.06739 0,-1.09382 -3.86416,-0.0494 -6,1.62167 -0.82501,0.64548 -3.62732,2.19374 -6.22736,3.44056 -4.3551,2.08845 -6.91687,4.14927 -5.15787,4.14927 0.40305,0 4.47961,-1.86485 9.05902,-4.14411 z m -0.9238,-3.06025 c 6.45141,-3.30841 8.27303,-5.5202 3.57538,-4.34117 -2.34359,0.5882 -2.5141,0.47785 -1.37757,-0.89159 2.21115,-2.66425 -1.00488,-1.91255 -6.36749,1.48832 -5.76743,3.65759 -5.48142,4.95932 0.42731,1.94491 2.3108,-1.17888 3.89887,-1.65385 3.52906,-1.05548 -0.36981,0.59837 -2.44186,1.99067 -4.60454,3.09398 -2.16268,1.10332 -3.93215,2.22189 -3.93215,2.48571 0,1.16766 2.95314,0.24807 8.75,-2.72468 z m -4.45034,-5.42282 c 1.76019,-0.89494 3.35429,-1.76139 3.54244,-1.92543 0.79295,-0.69132 -6.30079,-7.44132 -7.75278,-7.3771 -1.17636,0.052 -1.06965,0.29359 0.41068,0.92971 1.73494,0.74553 1.76555,0.86874 0.23095,0.92971 -1.4258,0.0566 -1.63286,0.60388 -1.06712,2.82029 0.38606,1.5125 0.6476,3.5375 0.5812,4.5 -0.14817,2.14765 0.0598,2.15395 4.05463,0.12282 z m -3.29966,-4.76583 c 0,-0.21616 0.69837,-0.661 1.55194,-0.98855 0.88992,-0.34149 1.29132,-0.17385 0.94098,0.39301 -0.58726,0.95021 -2.49292,1.40545 -2.49292,0.59554 z m -75.37788,243.14308 c -4.27074,-6.7481 -21.62213,-37.8015 -21.62213,-38.6967 0,-0.5793 -0.3375,-1.0559 -0.75,-1.0592 -1.22547,-0.01 -9.78052,-16.7969 -8.97201,-17.6054 0.40847,-0.4085 1.39594,0.1245 2.19438,1.1843 1.40223,1.8613 1.84754,1.7232 13.06662,-4.0525 17.08901,-8.7977 23.49776,-13.0587 23.20447,-15.428 -0.74396,-6.01 2.42183,-1.3576 18.7964,27.6227 2.53423,4.4852 1.53538,7.2649 -1.20477,3.3528 -1.90517,-2.72 -3.43954,-2.2621 -13.66429,4.0776 -4.30606,2.6699 -8.13106,4.8621 -8.5,4.8715 -0.36893,0.01 -2.92079,1.3899 -5.67079,3.068 -4.47782,2.7323 -4.68669,3.007 -2.00001,2.6307 1.65,-0.231 10.10858,-2.3002 18.79683,-4.598 8.68825,-2.2979 16.22907,-3.9108 16.75738,-3.5843 1.28961,0.797 -11.71319,17.3802 -23.82311,30.3829 -3.43424,3.6874 -4.17233,5.1213 -3.775,7.3336 0.5974,3.3262 -0.8803,3.5869 -2.83397,0.5 z m 10.06029,-22.9028 c 6.33271,-6.6686 7.85041,-9.5194 4.56759,-8.5793 -2.25566,0.6459 -16.6336,4.5386 -21.50001,5.821 -2.0625,0.5435 -3.75,1.4305 -3.75,1.9711 0,0.5406 1.05477,2.6607 2.34394,4.7115 1.28917,2.0507 3.14107,5.0294 4.11533,6.6193 l 1.77139,2.8909 3.06708,-3.3909 c 1.6869,-1.8649 5.91,-6.3845 9.38468,-10.0436 z m -6.68241,-21.7523 c 3.025,-1.7872 6.175,-3.6601 7,-4.1618 0.825,-0.5017 3.17275,-1.8185 5.21723,-2.9262 2.50231,-1.3558 3.52956,-2.5032 3.14301,-3.5105 -0.31582,-0.823 -0.97693,-1.4964 -1.46913,-1.4964 -0.4922,0 -5.50656,2.6401 -11.14301,5.8668 -5.63646,3.2268 -12.94811,7.3317 -16.24811,9.1221 -7.42306,4.0272 -7.91825,4.4788 -7.13878,6.5101 0.53917,1.405 1.64116,1.089 7.88278,-2.2606 3.9908,-2.1416 9.73101,-5.3562 12.75601,-7.1435 z m -18.00001,-2.9656 c 11.94186,-6.1662 25.85489,-14.2495 27.09181,-15.7399 0.85438,-1.0295 0.90673,-1.7909 0.17354,-2.5241 -0.73319,-0.7331 -2.36441,-0.3157 -5.40762,1.3838 -24.9986,13.961 -30.40954,17.0093 -30.73127,17.3126 -0.65268,0.6152 0.84199,3.6194 1.62407,3.2643 0.41221,-0.1872 3.67447,-1.8507 7.24947,-3.6967 z m 305.5891,43.1207 c 0.5091,-2.5966 -0.1756,-3.2011 -12.275,-10.8377 -7.0478,-4.4483 -14.7677,-9.1667 -17.1554,-10.4854 -4.2593,-2.3525 -4.3679,-2.3613 -5.7537,-0.4661 -0.8858,1.2114 -1.7625,1.5788 -2.351,0.9855 -0.5865,-0.5915 2.2272,-5.8211 7.5035,-13.9463 4.6431,-7.15 9.4036,-14.8 10.5791,-17 5.2744,-9.872 10.6639,-15.764 9.3759,-10.25 -0.463,1.9821 1.4272,3.5298 15.8762,13 9.0209,5.9125 16.883,10.75 17.4713,10.75 0.5883,0 1.558,-0.9126 2.155,-2.028 0.5969,-1.1154 1.4714,-1.7894 1.9433,-1.4977 1.0707,0.6617 -1.4231,5.596 -8.3519,16.5257 -13.5373,21.3541 -17.9776,28 -18.7076,28 -0.4669,0 -0.6062,-1.2375 -0.3097,-2.75 z m 7.0811,-10.7594 c 0.1848,-0.5551 -6.5279,-5.5588 -14.9171,-11.1191 -17.1242,-11.35 -19.2237,-12.5676 -20.1216,-11.6696 -1.6023,1.6022 -0.051,3.3268 7.6185,8.4681 23.4259,15.7043 26.4363,17.2765 27.4202,14.3206 z m 6.3298,-10.883 c 0,-0.6311 -3.0375,-3.0282 -6.75,-5.3268 -3.7125,-2.2987 -11.1901,-7.0929 -16.6168,-10.6539 -9.3258,-6.1195 -12.6332,-7.1787 -12.6332,-4.0454 0,1.0831 20.6173,15.6964 24.4198,17.3085 0.5059,0.2144 2.7538,1.6404 4.9953,3.1688 4.0122,2.7358 6.5849,2.5595 6.5849,-0.4512 z m 5.9955,-8.8576 c 0,-1.2158 -20.4503,-15.2129 -30.0547,-20.5752 -4.7216,-2.6362 -6.6968,-2.5872 -5.6502,0.14 0.6211,1.6187 32.4639,21.6852 34.4113,21.6852 0.714,0 1.2961,-0.5625 1.2936,-1.25 z m -185.24548,9.5607 c -1.82823,-0.4778 -2.14548,-2.2321 -1.10569,-6.1143 0.50264,-1.8767 1.19513,-2.2473 3.73634,-2 2.58652,0.2518 3.1744,0.7837 3.44161,3.1141 0.33817,2.9492 -1.27901,5.7706 -3.1947,5.5735 -0.62016,-0.064 -1.91506,-0.3218 -2.87756,-0.5733 z m 9.25,-3.8107 0,-4.6207 3.75,0.3103 c 3.65658,0.3027 3.74998,0.41 3.74998,4.3104 0,3.9004 -0.093,4.0077 -3.74998,4.3104 l -3.75,0.3103 0,-4.6207 z m 11.59288,3.3561 c -2.0668,-6.5822 -0.937,-9.331 3.5687,-8.6828 2.5007,0.3597 4.9168,6.1658 3.2454,7.799 -1.7613,1.7209 -6.3638,2.3179 -6.8141,0.8838 z m -30.34288,-1.8753 c -2.51526,-1.0244 -2.67932,-1.7214 -1.27475,-5.4157 1.07147,-2.8182 1.71338,-3.0142 5.34716,-1.6326 2.14577,0.8158 2.36788,1.3468 1.77534,4.244 -0.72408,3.5403 -2.24707,4.2707 -5.84775,2.8043 z m 40.30598,-2.5342 c -0.779,-4.1523 -0.1133,-5.2621 3.4002,-5.6678 1.9652,-0.227 2.5942,0.333 3.3857,3.0142 1.0916,3.6979 0.4562,4.7451 -3.4662,5.7131 -2.4026,0.5929 -2.683,0.3345 -3.3197,-3.0595 z m -49.99863,-0.9652 c -1.59215,-1.2159 -1.76885,-1.9778 -0.97934,-4.2228 1.12084,-3.1871 3.19052,-3.8795 5.82893,-1.9503 1.5383,1.1248 1.69686,1.8806 0.89779,4.2789 -1.12441,3.3749 -2.99946,3.9929 -5.74738,1.8942 z m 59.79703,-2.1756 c -1.4317,-3.4266 -1.4142,-3.7889 0.2422,-5 3.2145,-2.3506 5.8951,-1.6005 7.2025,2.0152 0.6605,1.8266 1.2009,3.5825 1.2009,3.9022 0,0.4943 -5.5074,2.7768 -6.7002,2.7768 -0.221,0 -1.0964,-1.6624 -1.9454,-3.6942 z m 10.1128,-4.0385 c -1.5092,-3.6121 -1.4854,-3.8341 0.591,-5.5154 2.8811,-2.3331 3.4706,-2.2304 5.7311,0.9981 2.3366,3.3372 1.9282,4.8276 -1.8598,6.7865 -2.8725,1.4854 -2.8992,1.4718 -4.4623,-2.2692 z m -91.71719,-3.6593 c -2.19143,-1.6636 -2.15988,-2.5369 0.19356,-5.358 2.23672,-2.6812 2.43362,-2.7042 5.56639,-0.6515 2.31933,1.5197 2.36562,1.7415 0.93914,4.5 -1.61288,3.119 -3.89997,3.6343 -6.69909,1.5095 z m 100.71549,-2.0422 -1.8495,-3.4343 2.442,-2.0325 c 3.2094,-2.6712 3.425,-2.6338 6.0493,1.0517 l 2.2435,3.1508 -2.7312,2.3492 c -3.5567,3.0594 -3.9606,2.9882 -6.1541,-1.0849 z m -108.23886,-4.0866 c -1.47977,-1.679 -0.71304,-5.8306 1.4008,-7.585 1.13989,-0.946 1.92726,-0.7217 3.86831,1.1018 l 2.43712,2.2896 -2.03453,2.8572 c -2.24869,3.158 -3.75366,3.5126 -5.6717,1.3364 z m 116.87526,-2.5552 c -2.1703,-2.9355 -2.1946,-3.1641 -0.5331,-5 0.9576,-1.0582 2.3413,-1.924 3.0747,-1.924 1.7037,0 5.3565,3.1014 5.3565,4.5479 0,1.0691 -4.1212,5.4521 -5.1264,5.4521 -0.2736,0 -1.5209,-1.3842 -2.7717,-3.076 z m -125.43045,-6.3027 c -1.45552,-2.2214 -1.40926,-2.519 0.69944,-4.5 2.7976,-2.6282 3.83775,-2.6532 6.10593,-0.1469 1.6732,1.8488 1.68158,2.1349 0.13194,4.5 -2.07951,3.1737 -4.91473,3.2338 -6.93731,0.1469 z m 132.37865,-1.1545 -2.45,-2.4123 2.3743,-2.5272 c 2.8117,-2.993 3.3713,-3.0679 6.0141,-0.8051 2.5009,2.1413 2.565,4.4669 0.1827,6.6228 -2.3708,2.1456 -3.1661,2.0315 -6.1211,-0.8782 z m -138.99501,-7.3894 -2.0811,-2.9227 3.06675,-2.1837 c 2.93762,-2.0918 3.14868,-2.1096 5.01301,-0.4224 2.54774,2.3057 2.45919,4.2029 -0.30374,6.5078 -2.97666,2.4833 -3.26481,2.4337 -5.69492,-0.979 z m 34.76654,-1.8336 c -3.20794,-3.3148 -4.79818,-5.9175 -5.27899,-8.64 -0.37846,-2.1429 -1.32788,-4.8726 -2.10983,-6.066 -1.30655,-1.9941 -1.19089,-2.3405 1.42777,-4.2766 2.84733,-2.1051 2.851,-2.1052 4.84495,-0.1112 1.0975,1.0975 3.87135,2.4169 6.16411,2.932 4.36424,0.9806 10.13038,5.297 10.13038,7.5833 0,0.9468 -1.55661,1.3347 -5.35611,1.3347 l -5.35612,0 0.99977,5.0564 c 1.43893,7.2774 0.0126,7.8482 -5.46593,2.1874 z m 111.42837,0.8126 c -2.7014,-2.2535 -2.7414,-2.8596 -0.3906,-5.9163 1.7586,-2.2866 1.9132,-2.3091 4.9778,-0.7243 3.6028,1.8631 3.8071,2.6711 1.5478,6.1194 -1.9198,2.9299 -3.125,3.0323 -6.135,0.5212 z m -152.16342,-8.7657 c -1.06112,-2.3289 -0.98661,-2.8906 0.53061,-4 0.9708,-0.7099 2.7955,-1.2907 4.0549,-1.2907 3.15969,0 4.42607,4.7238 1.78425,6.6556 -2.83623,2.0739 -5.01571,1.6069 -6.36976,-1.3649 z m 157.10042,-0.5393 c -1.8382,-0.8847 -2.1839,-1.6406 -1.6842,-3.6823 1.0429,-4.261 2.6316,-5.2668 6.2997,-3.9881 3.4518,1.2033 3.8395,2.4159 2.037,6.372 -1.2446,2.7315 -2.9738,3.069 -6.6525,1.2984 z m -161.15181,-7.6857 c -1.63773,-3.0601 -1.22906,-4.6563 1.51187,-5.9052 3.65939,-1.6673 4.1386,-1.501 5.30347,1.8405 0.96336,2.7636 0.81674,3.1197 -1.85252,4.5 -3.66172,1.8936 -3.71915,1.8885 -4.96282,-0.4353 z m 166.62921,-2.4798 c -3.5957,-0.9191 -3.7977,-1.1693 -3.2312,-4.0019 0.7995,-3.9977 1.4539,-4.4648 5.3962,-3.8516 4.0016,0.6225 4.7154,2.0415 2.9771,5.9193 -1.2474,2.7827 -1.4802,2.8703 -5.1421,1.9342 z m -134.85363,-3.5674 c -1.6671,-2.9299 -1.65245,-2.995 1.11827,-4.968 2.70111,-1.9233 2.86938,-1.9307 4.43925,-0.1961 2.29944,2.5409 2.02977,4.6548 -0.83309,6.5306 -3.0921,2.026 -2.73544,2.1292 -4.72443,-1.3665 z m -35.79573,-4.479 c -1.42649,-3.7519 -1.3067,-4.2281 1.23497,-4.9092 4.16578,-1.1164 5.52181,-0.6756 6.19695,2.0143 0.7686,3.0624 0.0953,3.9565 -3.68192,4.8893 -2.33531,0.5767 -2.88329,0.2852 -3.75,-1.9944 z m 237.72106,-0.1367 c -0.6062,-0.6063 0.1774,-43.1509 0.8329,-45.2162 0.6395,-2.015 2.431,-0.362 2.431,2.2432 0,2.1261 0.5423,2.3617 6.75,2.9326 5.3569,0.4927 27.8246,0.9487 34,0.69 0.6875,-0.029 1.25,-1.204 1.25,-2.6115 0,-1.4513 0.4328,-2.2915 1,-1.9409 1.6961,1.0482 0.5677,44.5 -1.1556,44.5 -0.4644,0 -0.8444,-0.8373 -0.8444,-1.8607 0,-2.4563 -5.5579,-3.1192 -26.25,-3.1306 -14.9267,-0.01 -15.75,0.093 -15.75,1.9323 0,2.001 -1.3053,3.4204 -2.2639,2.4618 z m 44.0809,-14.7368 c 0.1863,-1.5736 -0.226,-2.8473 -1,-3.0895 -0.7244,-0.2267 -10.2311,-0.6489 -21.1262,-0.9383 l -19.8092,-0.5262 0.3092,3.194 0.3092,3.194 18,0.5335 c 24.1052,0.7144 22.9381,0.8329 23.317,-2.3675 z m 0.4923,-13.7406 c 0.2766,-1.0579 0.2077,-2.0932 -0.1532,-2.3007 -0.3609,-0.2075 -9.6561,-0.5454 -20.6561,-0.751 l -20,-0.3737 -0.3136,2.7205 -0.3136,2.7206 12.8136,0.2794 c 7.0475,0.1537 16.2575,0.133 20.4667,-0.046 6.5571,-0.2789 7.7252,-0.601 8.1562,-2.249 z m -109.3093,26.3304 c -3.1572,-0.5777 -3.7555,-1.5616 -3.2099,-5.2791 0.3994,-2.7214 0.7729,-2.9767 4.3548,-2.9767 4.4461,0 5.6998,1.7038 4.257,5.7853 -0.9952,2.8152 -1.716,3.1449 -5.4019,2.4705 z m -141.98402,-3.2172 c -1.52015,-3.67 -1.32653,-3.9517 3.22441,-4.6902 3.16974,-0.5144 3.55127,-0.3147 4.17926,2.1874 0.78967,3.1463 0.14127,4.0609 -3.51907,4.9641 -2.22881,0.5499 -2.78266,0.199 -3.8846,-2.4613 z m -116.33428,-2.6902 c -0.8625,-0.8625 -0.89489,-31.0153 -0.0421,-39.1745 0.63914,-6.1149 2.36039,-7.6642 2.36039,-2.1245 0,2.6927 0.69351,3.2639 8.51851,7.0163 8.86225,4.2499 12.85268,4.6018 15.53484,1.37 0.65535,-0.7897 1.88805,-1.4357 2.73934,-1.4357 0.85129,0 4.59663,-1.4053 8.323,-3.1229 5.50532,-2.5376 6.83228,-3.6009 7.07976,-5.6729 0.16751,-1.4025 0.90235,-2.7465 1.63297,-2.9866 1.08106,-0.3553 1.27921,3.3544 1.06412,19.9229 -0.14537,11.1977 -0.51815,21.6193 -0.82842,23.1591 -0.64854,3.2185 -2.4161,3.7187 -2.87407,0.8132 -0.37092,-2.3532 -4.94645,-2.9252 -26.94005,-3.3679 -13.72306,-0.2763 -14.25057,-0.2122 -14.26531,1.7341 -0.0189,2.4961 -1.38352,4.7888 -2.30299,3.8694 z m 43.31831,-14.3433 c 0,-0.9326 -2.45682,-2.1895 -12.70872,-6.5014 -2.46879,-1.0384 -5.36267,-1.5361 -7,-1.204 -3.79408,0.7697 -17.29129,6.9531 -17.29129,7.9217 0,0.4282 8.325,0.7786 18.5,0.7786 11.60317,0 18.50001,-0.3709 18.50001,-0.9949 z m 1,-11.0641 c 0,-2.7176 -0.40996,-4.941 -0.91102,-4.941 -2.37832,0 -12.11258,4.4292 -11.79937,5.3689 0.4264,1.2792 10.89071,5.6308 11.96039,4.9737 0.4125,-0.2533 0.75,-2.6841 0.75,-5.4016 z m -32.75001,-0.2102 c 1.5125,-0.6431 2.75,-1.6719 2.75,-2.2863 0,-0.6144 -2.7,-2.282 -6,-3.7059 l -6,-2.5889 0,6.3769 0,6.3769 3.25,-1.5018 c 1.7875,-0.8259 4.4875,-2.0278 6,-2.6709 z m 71.357,24.6874 c -0.33385,-0.87 -0.60699,-2.67 -0.60699,-4 0,-2.1002 0.46347,-2.4182 3.52475,-2.4182 2.91571,0 3.70346,0.47 4.559,2.7203 0.84458,2.2214 0.7133,2.9549 -0.71588,4 -2.41483,1.7657 -6.02935,1.6043 -6.76088,-0.3021 z m 30.95267,-4.5547 c -0.56341,-1.6533 -0.83804,-3.9266 -0.67814,-5.6135 0.17886,-1.887 6.7718,-1.5958 7.51149,0.3318 1.01159,2.6362 0.68236,5.4174 -0.64301,5.4319 -0.6875,0.01 -2.25703,0.2835 -3.48785,0.6134 -1.43085,0.3835 -2.4054,0.1081 -2.70249,-0.7636 z m 143.15453,-0.4826 c -0.3928,-0.3928 -0.7142,-2.2142 -0.7142,-4.0476 0,-3.2904 0.059,-3.3333 4.5604,-3.3333 l 4.5603,0 -0.3103,3.75 c -0.2898,3.5012 -0.545,3.7697 -3.8462,4.0476 -1.9446,0.1637 -3.8571,-0.024 -4.25,-0.4167 z m -175.71419,-7.8809 c 0,-3.3219 0.1751,-3.5 3.44098,-3.5 3.97243,0 4.99493,1.1271 4.13411,4.5568 -0.50336,2.0056 -1.23671,2.4432 -4.09414,2.4432 -3.31156,0 -3.48095,-0.1703 -3.48095,-3.5 z m 31,-5.5646 c 0,-4.1543 0.0232,-4.1808 3.125,-3.5604 1.71875,0.3438 3.54726,0.625 4.06336,0.625 0.5161,0 0.79735,1.4625 0.625,3.25 -0.28608,2.9671 -0.63978,3.277 -4.06336,3.5604 l -3.75,0.3103 0,-4.1853 z m 143.99999,-0.7471 c 0,-3.7548 0.1622,-3.9529 3.7089,-4.5285 4.2958,-0.6971 5.4375,0.3968 5.0516,4.8402 -0.2402,2.7659 -0.5922,3.024 -4.5105,3.3075 l -4.25,0.3075 0,-3.9267 z m -171.74999,-0.9777 c -2.97076,-0.3083 -3.25,-0.6326 -3.25,-3.774 0,-3.3427 0.10928,-3.4366 4,-3.4366 3.89169,0 4,0.093 4,3.441 0,3.9596 -0.33779,4.2276 -4.75,3.7696 z m 28.27842,-5.1646 c -0.32428,-0.5247 -0.29593,-2.1241 0.063,-3.5543 0.55286,-2.2027 1.13079,-2.5537 3.7806,-2.296 2.72205,0.2648 3.16863,0.7261 3.44133,3.5543 0.29967,3.108 0.16024,3.25 -3.19098,3.25 -1.92739,0 -3.76967,-0.4293 -4.09396,-0.954 z m 142.40407,-2.7236 c -1.497,-3.9374 -1.1367,-4.7692 2.5686,-5.9289 4.1935,-1.3125 5.8174,-0.012 5.3211,4.2605 -0.2602,2.2412 -0.9603,2.9043 -3.6397,3.4479 -2.9018,0.5888 -3.4344,0.3658 -4.25,-1.7795 z m -172.4546,-7.0724 c 0.38527,-2.0625 0.836,-3.8882 1.00164,-4.0571 0.56496,-0.5759 6.52985,1.3045 6.52515,2.0571 -0.003,0.4125 -0.005,1.875 -0.005,3.25 0,2.2613 -0.39258,2.5 -4.11129,2.5 l -4.11129,0 0.70047,-3.75 z m 33.66759,0.6801 c -1.57367,-0.6303 -2.15403,-1.4655 -1.75,-2.5184 0.33249,-0.8664 0.60452,-2.2698 0.60452,-3.1185 0,-1.2047 0.70615,-1.402 3.21875,-0.8995 4.2335,0.8467 5.02721,1.7781 4.2282,4.9616 -0.70065,2.7916 -2.27882,3.186 -6.30147,1.5748 z m 135.17501,-3.8918 c -1.3025,-3.4507 -0.3548,-4.6815 4.3255,-5.6175 2.5023,-0.5005 3.1392,-0.1876 4.1547,2.0411 1.6175,3.5501 1.6639,3.446 -2.2686,5.0891 -4.6746,1.9532 -4.9265,1.8918 -6.2116,-1.5127 z m -164.57049,-4.7277 c -1.85887,-0.4857 -2.08153,-1.4723 -1.13172,-5.0147 0.49905,-1.8613 1.08017,-2.1111 3.73634,-1.6064 4.04411,0.7685 3.9508,0.6434 3.16109,4.2389 -0.66917,3.0467 -1.65859,3.4555 -5.76571,2.3822 z m 32.5,-0.3418 c -1.2375,-0.4974 -2.25,-1.0767 -2.25,-1.2874 0,-1.3038 2.31426,-6.6814 2.87532,-6.6814 0.53826,0 3.13645,1.5573 5.92336,3.5504 0.16427,0.1174 0.003,1.3917 -0.35841,2.8316 -0.68889,2.7447 -2.28902,3.1549 -6.19027,1.5868 z m 127.73669,-5.0009 c -0.6908,-1.6676 -1.0829,-3.1538 -0.8713,-3.3027 2.4545,-1.7269 6.1106,-3.7543 6.3029,-3.4951 4.2528,5.7304 4.4194,7.1271 1.0346,8.6693 -3.8959,1.7752 -5.1001,1.4266 -6.4662,-1.8715 z m -122.87064,-4.3444 -2.2326,-2.3765 2.46364,-2.8642 c 2.43408,-2.8297 2.48878,-2.8414 4.55828,-0.9685 2.57959,2.3345 2.67237,4.7528 0.2659,6.9307 -2.33682,2.1148 -2.39901,2.1059 -5.05522,-0.7215 z m -34.36604,-0.7036 c -1.605,-0.9349 -1.62359,-1.2637 -0.22432,-3.9696 1.77722,-3.4368 2.17815,-3.5181 5.34305,-1.0842 2.02092,1.5541 2.19931,2.1382 1.21482,3.9777 -1.24115,2.3191 -3.5313,2.7082 -6.33355,1.0761 z m 151.77978,-3.5148 c -1.6338,-2.4935 -1.612,-2.6888 0.5593,-5 2.7525,-2.9299 3.9517,-3.0062 6.1886,-0.3937 2.3609,2.7573 2.1613,4.4709 -0.7425,6.3735 -3.3114,2.1697 -4.0172,2.0545 -6.0054,-0.9798 z m -110.30727,-3.9618 c -2.82959,-1.982 -2.80665,-3.5459 0.0919,-6.269 2.91817,-2.7415 3.09389,-2.7263 5.17391,0.4482 1.4506,2.2139 1.52011,2.9931 0.44603,5 -1.48842,2.7812 -2.67048,2.951 -5.71188,0.8208 z m -36.5042,-1.8586 c -1.51263,-1.1475 -1.60165,-1.7467 -0.58949,-3.9682 1.39064,-3.0521 2.52908,-3.2203 5.6318,-0.832 2.11001,1.6242 2.1562,1.8892 0.69329,3.9778 -1.78732,2.5517 -3.19076,2.753 -5.7356,0.8224 z m 140.40617,-1.9522 -2.1679,-2.3076 2.0943,-2.6625 c 2.4626,-3.13082 4.0276,-3.33812 6.2941,-0.83372 2.3931,2.64432 2.0451,4.50962 -1.1988,6.42582 -2.7564,1.6283 -2.9276,1.6071 -5.0217,-0.622 z m -96.91005,-4.0777 -2.28557,-2.41072 2.22413,-2.0721 c 2.96532,-2.7626 4.09455,-2.6159 6.10858,0.7936 1.60153,2.71122 1.59543,2.95382 -0.11313,4.50002 -2.39153,2.1643 -3.22062,2.051 -5.93401,-0.8108 z m -37.47165,-2.13422 c -2.67805,-1.4492 -2.7132,-1.5772 -1.22432,-4.4564 1.78728,-3.4562 1.79708,-3.4588 5.01671,-1.3492 2.93184,1.921 3.01312,2.5157 0.71482,5.2305 -1.61988,1.91352 -1.95501,1.95632 -4.50721,0.5751 z m 126.3677,-0.3024 c -2.3814,-1.8311 -2.3832,-1.848 -0.5344,-4.9778 2.0997,-3.5545 4.3454,-3.9897 6.7689,-1.3117 2.0827,2.3014 2.0425,3.127 -0.2886,5.9213 -2.2571,2.70562 -2.8576,2.74282 -5.9459,0.3682 z m 79.3895,-10.7823 c -9.2086,-16.6399 -9.0192,-16.2168 -7.8037,-17.4322 0.708,-0.7081 1.6853,0.078 3.1195,2.5087 l 2.0886,3.5398 4.7978,-2.2309 c 2.6388,-1.227 6.3728,-3.1817 8.2978,-4.3438 1.925,-1.1621 7.686,-4.3083 12.8022,-6.9917 7.3837,-3.8726 9.1883,-5.2404 8.75,-6.6323 -1.8029,-5.72515 -1.8324,-6.01362 -0.5732,-5.59388 0.7053,0.23509 2.8396,3.33288 4.743,6.88388 1.9034,3.551 5.2196,9.5335 7.3694,13.2943 2.1497,3.7608 3.9086,7.0233 3.9086,7.25 0,1.1143 -2.4337,0.2045 -3.5789,-1.3379 -1.0202,-1.374 -1.6883,-1.5158 -3.1102,-0.66 -0.996,0.5995 -4.0609,2.3362 -6.8109,3.8595 -24.1189,13.3592 -27.6579,15.7169 -25.5486,17.0205 1.464,0.9049 1.3138,3.53172 -0.2014,3.52252 -0.6875,0 -4.4,-5.69962 -8.25,-12.65652 z m 21.0043,-9.586 c 9.6194,-5.0875 17.4842,-9.7 17.4774,-10.25 -0.039,-3.1796 -1.7227,-3.6111 -5.5821,-1.4309 -2.1448,1.2117 -6.8246,3.7678 -10.3996,5.6803 -13.8892,7.4301 -21,11.405 -21,11.7389 0,0.8018 1.2457,3.5117 1.6142,3.5117 0.2202,0 8.2707,-4.1625 17.8901,-9.25 z m -272.50429,17.6914 c 0,-0.3879 0.92645,-2.2043 2.05878,-4.0365 l 2.05877,-3.3311 -3.94906,-5.2869 c -7.39148,-9.8955 -6.4404,-9.4346 -21.15052,-10.2482 -11.76531,-0.6507 -13.35644,-0.5423 -15.09112,1.0275 -1.06652,0.9652 -2.23446,1.4596 -2.59543,1.0986 -0.86424,-0.8642 0.11396,-2.7011 9.89993,-18.5902 8.24874,-13.39312 11.88085,-17.56344 9.60112,-11.02383 -0.92545,2.65477 -0.80606,3.7325 0.70068,6.32467 0.99892,1.71856 2.10481,3.34956 2.45754,3.62456 0.35272,0.275 2.054,2.5769 3.78063,5.1153 3.47334,5.1063 3.42495,5.0912 20.95563,6.505 7.09554,0.5722 8.3136,0.4377 8.85699,-0.9784 0.64292,-1.6754 3.41606,-2.326 3.41606,-0.8015 0,0.8402 -9.12368,16.3834 -10.87425,18.5255 -0.50978,0.6238 -2.28704,3.6091 -3.94948,6.6341 -1.66243,3.025 -3.73217,5.6455 -4.59943,5.8234 -0.86726,0.1778 -1.57684,0.01 -1.57684,-0.382 z m 9.62646,-16.0716 2.43513,-4.1302 -6.60944,-0.7078 c -3.6352,-0.3893 -6.83943,-0.4778 -7.12051,-0.1967 -0.88866,0.8886 6.10559,9.6321 7.51403,9.3932 0.74011,-0.1255 2.44147,-2.0868 3.78079,-4.3585 z m -23.62646,-14.799 c 0,-0.9654 -8.11907,-12.56932 -8.78229,-12.55186 -0.95875,0.0252 -6.78086,9.57906 -6.48673,10.64446 0.1973,0.7146 2.90459,1.1489 13.51902,2.1685 0.9625,0.092 1.75,-0.025 1.75,-0.2611 z m 177.14009,27.5698 c -2.2865,-1.7586 -2.309,-1.9131 -0.7243,-4.9777 1.818,-3.5157 5.4143,-4.2774 7.624,-1.6148 1.0555,1.2717 0.991,2.1642 -0.3613,5 -1.8566,3.8932 -3.1403,4.2059 -6.5384,1.5925 z m -111.96707,-1.9752 -2.32698,-1.7901 2.12762,-3.606 c 1.17019,-1.9834 1.99233,-4.8421 1.82698,-6.3528 -0.28498,-2.6036 0.038,-2.8335 6.19936,-4.4121 3.575,-0.9159 7.49203,-2.287 8.70452,-3.047 1.2125,-0.7599 2.43678,-1.1494 2.72063,-0.8655 0.28385,0.2838 -0.82068,3.8009 -2.45453,7.8157 -1.63384,4.0148 -2.97062,7.928 -2.97062,8.6961 0,0.9168 -1.14865,1.3963 -3.34501,1.3963 -2.07502,0 -4.0322,0.7594 -5.15499,2 -2.18978,2.4197 -2.38863,2.4259 -5.32698,0.1654 z m 49.86217,-1.0996 c -1.70747,-3.1904 -1.19499,-4.9318 1.9265,-6.5459 2.76239,-1.4285 3.03154,-1.401 4,0.4085 1.60376,2.9967 1.23456,5.8963 -0.89594,7.0365 -2.77576,1.4855 -3.85785,1.2921 -5.03056,-0.8991 z m 52.1103,-1.1356 c -1.7296,-0.6927 -2.1599,-1.4058 -1.6214,-2.6866 0.4032,-0.959 0.9527,-2.7561 1.2211,-3.9936 0.5469,-2.5218 1.9685,-2.7931 5.7078,-1.0894 2.9695,1.353 3.0694,1.9287 1.0213,5.8891 -1.6141,3.1215 -2.5421,3.3972 -6.3288,1.8805 z m -42.6069,-4.5762 c -0.77327,-4.1219 0.4406,-5.5339 4.39536,-5.113 1.7583,0.1871 2.65788,1.0918 3.2407,3.259 0.91263,3.3937 -0.90816,5.5 -4.75448,5.5 -1.73655,0 -2.34107,-0.7649 -2.88158,-3.646 z m 32.1281,1.9794 c -0.3667,-0.3667 -0.6667,-2.4058 -0.6667,-4.5314 0,-4.3852 1.3632,-5.3748 5.3276,-3.8675 2.862,1.0881 3.4652,3.7156 1.6372,7.1313 -0.9954,1.8599 -4.9166,2.6491 -6.2981,1.2676 z m -21.2347,-1.65 c -0.27788,-0.7242 -0.60126,-2.6367 -0.71861,-4.25 -0.1962,-2.6972 0.0792,-2.9578 3.42098,-3.2368 3.50603,-0.2928 3.64943,-0.1746 4.06053,3.3468 0.3642,3.1196 0.081,3.7815 -1.9495,4.5534 -3.21953,1.2241 -4.21793,1.1384 -4.8134,-0.4134 z m 12.264,0.5253 c -2.6271,-0.3297 -2.7848,-0.6155 -2.5,-4.5303 0.2942,-4.0432 0.4253,-4.1884 4.054,-4.4887 l 3.75,-0.3104 0,4.4534 c 0,4.7828 -0.7262,5.4505 -5.304,4.876 z M 912.06559,945.9396 c -0.64086,-1.03693 2.16533,-3.83777 3.9091,-3.90167 0.47739,-0.0175 0.60611,-2.6193 0.28604,-5.7818 -0.32007,-3.1625 -0.59816,-7.83278 -0.61798,-10.37839 -0.0346,-4.44696 -0.26144,-4.79966 -5.78604,-8.99747 -3.1625,-2.403 -5.975,-4.59779 -6.25,-4.87731 -0.275,-0.27952 -2.2161,-1.78787 -4.31356,-3.3519 -3.12059,-2.32695 -4.43799,-2.72653 -7.25,-2.19899 -5.51169,1.034 -4.05859,-1.04938 3.31356,-4.75079 7.01357,-3.52139 18.88577,-9.8212 28.08776,-14.90438 5.15667,-2.84855 8.59175,-3.04045 4.80045,-0.26818 -1.80924,1.32295 -1.80781,1.43375 0.0538,4.16824 1.05187,1.54504 3.40918,5.73416 5.23847,9.30916 10.11515,19.76813 15.33984,26.60769 17.56951,23.00001 0.92779,-1.5012 2.5,-1.20291 2.5,0.47432 0,1.5197 -4.83537,4.52568 -7.27993,4.52568 -0.75858,0 -4.04344,-2.41352 -7.29967,-5.36339 -4.47456,-4.05357 -7.01938,-7.53362 -10.42041,-14.25001 -2.475,-4.88763 -4.76105,-9.11161 -5.08011,-9.38661 -0.31906,-0.275 -1.21642,-1.9625 -1.99411,-3.75 -0.7777,-1.7875 -1.88915,-3.25 -2.46989,-3.25 -2.49937,0 -2.97208,2.25837 -2.34092,11.18375 0.63709,9.00941 0.74349,9.32232 4.17566,12.28062 2.65074,2.28475 3.77391,4.26423 4.54066,8.00246 1.31494,6.41092 0.62219,7.34183 -2.93055,3.93808 -1.58393,-1.5175 -3.14918,-2.48979 -3.47833,-2.16065 -0.32914,0.32915 -0.27737,3.59656 0.11505,7.26092 0.74811,6.98578 0.79416,7.0261 5.71254,5.00129 1.22086,-0.5026 1.75,-0.25491 1.75,0.81916 0,0.84678 -1.0125,1.85149 -2.25,2.23269 -1.2375,0.38119 -4.18506,1.98652 -6.55013,3.56739 -4.8801,3.26196 -4.84841,3.25198 -5.74099,1.80777 z m 1.54112,-43.43348 c 0,-7.46907 -0.54252,-7.79436 -7.2729,-4.36078 l -4.19323,2.13923 4.95568,4.36077 c 2.72563,2.39843 5.30551,4.36078 5.73307,4.36078 0.42756,0 0.77738,-2.925 0.77738,-6.5 z m 167.28209,36.38208 c -1.3203,-1.32026 -7.2128,-4.68327 -10.452,-5.96521 -2.7494,-1.08811 -4.2645,-3.40501 -3.2744,-5.0071 0.8536,-1.381 3.0504,-1.08923 4.4443,0.59024 0.6847,0.825 1.564,1.5 1.954,1.5 0.7685,0 4.0579,-4.98553 11.5464,-17.50001 2.6329,-4.4 6.141,-9.98085 7.7959,-12.40188 2.8385,-4.15284 2.9072,-4.47611 1.2144,-5.71394 -0.9869,-0.72163 -2.2602,-1.46734 -2.8296,-1.65713 -0.5694,-0.1898 -0.6918,-0.9007 -0.2721,-1.57979 0.5754,-0.93111 1.541,-0.72265 3.927,0.84779 1.7402,1.14537 5.3015,3.19762 7.914,4.56057 5.1161,2.66908 6.4564,5.08947 2.231,4.02896 -2.2736,-0.57062 -2.9801,0.0951 -7.25,6.83078 -5.6315,8.88354 -7.8111,12.50708 -11.3086,18.80042 -1.4414,2.59367 -3.2341,5.45486 -3.9838,6.35821 -1.1652,1.40398 -1.1145,1.82423 0.3491,2.89448 0.9418,0.68861 1.7123,1.71677 1.7123,2.28479 0,1.48145 -2.5815,2.26523 -3.7179,1.12882 z m -51.4055,-23.3388 c -0.2512,-0.25121 -11.3361,-0.61108 -24.633,-0.79973 -13.29702,-0.18864 -24.46155,-0.62817 -24.81011,-0.97673 -1.12099,-1.12101 0.61636,-2.76682 2.9207,-2.76682 1.86272,0 2.87617,-1.49434 6.06889,-8.94861 l 3.83274,-8.94861 -4.23695,-11.55139 c -4.0693,-11.09432 -4.35135,-11.55139 -7.1279,-11.55139 -1.59002,0 -2.89095,-0.52188 -2.89095,-1.15973 0,-1.46619 55.92688,-0.31343 57.42388,1.18361 0.6348,0.63483 -0.1171,0.97612 -2.1506,0.97612 -2.1063,0 -3.2321,0.53769 -3.45,1.64771 -0.1778,0.90624 -0.192,10.13124 -0.032,20.5 l 0.2918,18.85229 2.4582,0 c 2.755,0 3.383,2.43118 0.8764,3.39302 -1.8757,0.71978 -3.9049,0.78692 -4.5416,0.15026 z m -30.62598,-4.12721 c 0.55915,-0.55915 -2.40448,-10.238 -3.852,-12.58014 -0.39582,-0.64045 -1.92172,1.57341 -3.53682,5.13141 -1.56236,3.44181 -2.59385,6.65717 -2.2922,7.14525 0.60487,0.9787 8.75045,1.23405 9.68102,0.30348 z m 10.74938,-21.05842 c 0,-15.95174 -0.2785,-20.44121 -1.25,-20.15127 -1.6021,0.47813 -8.60217,14.58765 -8.68624,17.50823 -0.0916,3.18101 7.99494,24.36717 9.05144,23.71422 0.4866,-0.30077 0.8848,-9.78281 0.8848,-21.07118 z m 12.3697,19.39235 c 0.3317,-1.2375 0.6092,-10.4625 0.6167,-20.5 0.013,-17.24433 -0.091,-18.25 -1.8794,-18.25 -1.0412,0 -2.1302,0.61815 -2.4201,1.37367 -0.29,0.75552 -0.5791,9.98053 -0.6425,20.5 -0.1099,18.23005 -0.025,19.12633 1.8035,19.12633 1.1446,0 2.1622,-0.90789 2.5218,-2.25 z m -21.857,-31.80763 c 0.3526,-1.60569 1.0566,-3.17615 1.5643,-3.48992 0.5076,-0.31377 0.923,-1.44393 0.923,-2.51147 0,-1.63376 -0.7123,-1.94098 -4.49998,-1.94098 -2.475,0 -4.5,0.43218 -4.5,0.9604 0,0.52821 0.76227,3.43589 1.69394,6.46149 1.83641,5.96381 3.58176,6.15232 4.81874,0.52048 z"
         id="path22603"
         inkscape:connector-curvature="0" />
    </g>
  </g>
</svg>
